<?xml version="1.0" encoding="iso-8859-1"?>
<!-- Generator: Adobe Illustrator 19.0.0, SVG Export Plug-In . SVG Version: 6.00 Build 0)  -->
<svg xmlns="http://www.w3.org/2000/svg" xmlns:xlink="http://www.w3.org/1999/xlink" version="1.1" id="Capa_1" x="0px" y="0px" viewBox="0 0 512 512" style="enable-background:new 0 0 512 512;" xml:space="preserve" width="512px" height="512px">
<g>
	<g>
		<path d="M503.709,123.582l-241-122c-4.219-2.109-9.199-2.109-13.418,0l-241,122C3.208,126.131,0,131.316,0,137    s3.208,10.869,8.291,13.418l241,120C251.4,271.473,253.7,272,256,272s4.6-0.527,6.709-1.582l241-120    C508.792,147.869,512,142.684,512,137S508.792,126.131,503.709,123.582z" fill="#FFFFFF"/>
	</g>
</g>
<g>
	<g>
		<path d="M503.709,363.582l-60.619-29.81l-166.963,83.481C269.916,420.359,262.958,422,256,422s-13.916-1.641-20.127-4.746    L67.91,333.772l-59.619,29.81C3.208,366.131,0,371.316,0,377c0,5.684,3.208,10.869,8.291,13.418l241,120    C251.4,511.473,253.7,512,256,512s4.6-0.527,6.709-1.582l241-120C508.792,387.869,512,382.684,512,377    C512,371.316,508.792,366.131,503.709,363.582z" fill="#FFFFFF"/>
	</g>
</g>
<g>
	<g>
		<path d="M503.709,243.582l-60.619-29.81l-166.963,83.481C269.916,300.359,262.958,302,256,302s-13.916-1.641-20.127-4.746    L67.91,213.772l-59.619,29.81C3.208,246.131,0,251.316,0,257s3.208,10.869,8.291,13.418l241,120C251.4,391.473,253.7,392,256,392    s4.6-0.527,6.709-1.582l241-120C508.792,267.869,512,262.684,512,257C512,251.316,508.792,246.131,503.709,243.582z" fill="#FFFFFF"/>
	</g>
</g>
<g>
</g>
<g>
</g>
<g>
</g>
<g>
</g>
<g>
</g>
<g>
</g>
<g>
</g>
<g>
</g>
<g>
</g>
<g>
</g>
<g>
</g>
<g>
</g>
<g>
</g>
<g>
</g>
<g>
</g>
</svg>
