<?xml version="1.0" encoding="iso-8859-1"?>
<!-- Generator: Adobe Illustrator 19.0.0, SVG Export Plug-In . SVG Version: 6.00 Build 0)  -->
<svg xmlns="http://www.w3.org/2000/svg" xmlns:xlink="http://www.w3.org/1999/xlink" version="1.1" id="Capa_1" x="0px" y="0px" viewBox="0 0 512 512" style="enable-background:new 0 0 512 512;" xml:space="preserve" width="512px" height="512px">
<g>
	<g>
		<path d="M385.675,259.806L214.847,431.228L57.709,274.083l170.873-171.467l-27.419-27.322L16.652,260.452    c-7.535,7.561-7.529,19.793,0.019,27.341l184.511,184.518c3.632,3.632,8.561,5.671,13.69,5.671c0.006,0,0.013,0,0.013-0.006    c5.142-0.006,10.071-2.058,13.696-5.697l184.511-185.157L385.675,259.806z" fill="#FFFFFF"/>
	</g>
</g>
<g>
	<g>
		<path d="M484.576,233.762L256.491,5.671C252.865,2.039,247.943,0,242.808,0c-5.135,0-10.058,2.039-13.69,5.671L178.938,55.85    c-3.632,3.626-5.671,8.555-5.671,13.684c0,5.135,2.039,10.058,5.671,13.69l228.097,228.085c3.626,3.632,8.548,5.671,13.684,5.671    s10.051-2.045,13.684-5.671l50.173-50.173C492.137,253.574,492.137,241.317,484.576,233.762z M420.719,270.251L219.995,69.534    l22.812-22.806l200.717,200.711L420.719,270.251z" fill="#FFFFFF"/>
	</g>
</g>
<g>
	<g>
		<path d="M231.647,202.498c-30.593,0-55.482,24.89-55.482,55.482c0,30.599,24.89,55.489,55.482,55.489s55.482-24.896,55.482-55.489    S262.239,202.498,231.647,202.498z M231.647,274.767c-9.245,0-16.774-7.529-16.774-16.78c0-9.251,7.522-16.774,16.774-16.774    c9.251,0,16.774,7.522,16.774,16.774C248.42,267.238,240.891,274.767,231.647,274.767z" fill="#FFFFFF"/>
	</g>
</g>
<g>
	<g>
		<path d="M480.808,393.332l-35.483-35.483c-7.561-7.561-19.806-7.561-27.367,0l-35.483,35.483    c-13.019,13.013-20.187,30.477-20.187,49.167c0,18.69,7.168,36.147,20.187,49.167C396.023,505.219,413.836,512,431.642,512    c17.806,0,35.618-6.774,49.167-20.335c13.019-13.013,20.187-30.477,20.187-49.167    C500.995,423.809,493.827,406.351,480.808,393.332z M453.441,464.298c-11.819,11.806-31.78,11.806-43.599,0    c-11.813-11.819-11.813-31.78,0-43.599l21.799-21.799l21.799,21.799C465.254,432.518,465.254,452.479,453.441,464.298z" fill="#FFFFFF"/>
	</g>
</g>
<g>
	<g>
		<path d="M94.373,93.333c-6.684-6.684-6.684-17.554,0-24.238c6.69-6.684,17.561-6.677,24.245,0l57.418,57.418l27.367-27.367    l-57.418-57.418c-21.767-21.774-57.205-21.774-78.985,0c-21.774,21.774-21.774,57.205,0,78.979l123.223,123.223l27.374-27.373    L94.373,93.333z" fill="#FFFFFF"/>
	</g>
</g>
<g>
</g>
<g>
</g>
<g>
</g>
<g>
</g>
<g>
</g>
<g>
</g>
<g>
</g>
<g>
</g>
<g>
</g>
<g>
</g>
<g>
</g>
<g>
</g>
<g>
</g>
<g>
</g>
<g>
</g>
</svg>
