<?xml version="1.0" encoding="utf-8"?>
<!-- Generator: Adobe Illustrator 19.0.0, SVG Export Plug-In . SVG Version: 6.00 Build 0)  -->
<svg version="1.1" id="Layer_1" xmlns="http://www.w3.org/2000/svg" xmlns:xlink="http://www.w3.org/1999/xlink" x="0px" y="0px"
	 viewBox="0 0 64 64" style="enable-background:new 0 0 64 64;" xml:space="preserve">
<style type="text/css">
	.st0{display:none;}
	.st1{display:inline;opacity:0.25;fill:url(#XMLID_14_);enable-background:new    ;}
	.st2{display:inline;opacity:0.25;fill:none;stroke:#FF0000;stroke-width:0.25;enable-background:new    ;}
	.st3{display:inline;}
	.st4{fill:#FF0000;}
	.st5{display:inline;opacity:0.75;}
	.st6{fill:#FF0000;}
	.st7{display:none;opacity:0.25;}
	.st8{display:inline;fill:none;stroke:#39C6F3;stroke-width:0.1;}
	.st9{display:none;fill:#FF0000;}
	.st10{opacity:0.5;fill:url(#XMLID_15_);stroke:#FF0000;enable-background:new    ;}
	.st11{display:none;fill:#FFFFFF;stroke:#FF0000;stroke-width:0.5;}
	.st12{fill:#FFFFFF;stroke:#FF0000;stroke-width:1.1005;stroke-miterlimit:10;}
	.st13{opacity:0.75;fill:none;stroke:#FF0000;stroke-width:2;enable-background:new    ;}
</style>
<g id="static_pin">
	<g id="XMLID_40_" class="st0">
		
			<radialGradient id="XMLID_14_" cx="1133.8389" cy="-1400.7804" r="33.0728" gradientTransform="matrix(0.5527 0 0 -0.673 -594.4727 -921.4252)" gradientUnits="userSpaceOnUse">
			<stop  offset="0.2253" style="stop-color:#4E4E4E"/>
			<stop  offset="0.7527" style="stop-color:#AEAEAE"/>
			<stop  offset="0.8058" style="stop-color:#BABABA"/>
			<stop  offset="0.9011" style="stop-color:#D8D9D8"/>
			<stop  offset="1" style="stop-color:#FFFFFF"/>
		</radialGradient>
		<polygon id="XMLID_42_" class="st1" points="52.2,40.6 32,41.3 12.2,40.6 12.2,1.3 52.2,1.3 		"/>
		<polygon id="XMLID_41_" class="st2" points="52.2,40.6 32,41.3 12.2,40.6 12.2,1.3 52.2,1.3 		"/>
	</g>
	<g id="XMLID_19_">
		<g id="XMLID_20_">
			<g id="XMLID_32_" class="st0">
				<g id="XMLID_38_" class="st3">
					<polyline id="XMLID_39_" class="st4" points="64.4,-9.5 0.7,-9.5 2.6,-7.7 22,-7.7 23.9,-5.8 40.8,-5.8 42.7,-7.7 62.2,-7.7 
											"/>
				</g>
				<g id="XMLID_36_" class="st5">
					<polyline id="XMLID_37_" class="st6" points="64.4,-9.5 0.7,-9.5 2.6,-7.7 22,-7.7 23.9,-5.8 40.8,-5.8 42.7,-7.7 62.2,-7.7 
											"/>
				</g>
			</g>
			<g id="XMLID_24_" class="st0">
				<g id="XMLID_30_" class="st3">
					<polygon id="XMLID_31_" class="st4" points="0.7,49.4 2.6,47.5 7.6,47.5 9.5,49.4 22.7,49.4 24.6,51.3 2.5,51.3 					"/>
				</g>
				<g id="XMLID_28_" class="st5">
					<polygon id="XMLID_29_" class="st6" points="0.7,49.4 2.6,47.5 7.6,47.5 9.5,49.4 22.7,49.4 24.6,51.3 2.5,51.3 					"/>
				</g>
			</g>
			<g id="XMLID_22_" class="st7">
				<polygon id="XMLID_23_" class="st8" points="62.2,50.8 32,50.8 2.2,50.8 2.2,-9.3 62.2,-9.3 				"/>
			</g>
		</g>
	</g>
	<path id="XMLID_16_" class="st9" d="M56.5,46.8c1.6-2.8,1.6-6.1,0-8.9L40.4,10c-1.6-2.8-4.5-4.5-7.7-4.5S26.6,7.2,25,10L8.9,37.9
		c-1.6,2.8-1.6,6.1,0,8.9c1.6,2.8,4.5,4.4,7.7,4.4h32.2C51.9,51.3,54.8,49.6,56.5,46.8z M53,44.8c-0.9,1.5-2.5,2.5-4.2,2.5H16.6
		c-1.7,0-3.3-0.9-4.2-2.4s-0.9-3.4,0-4.9l16.1-28c0.9-1.5,2.4-2.4,4.2-2.4c1.8,0,3.3,0.9,4.2,2.4L53,39.9
		C53.9,41.4,53.8,43.2,53,44.8z"/>
	<g id="XMLID_11_" class="st0">
		<g id="XMLID_12_" class="st3">
			<path id="XMLID_13_" class="st4" d="M8.5,11c-1.6,2.8-1.6,6.1,1.1,10.9l13.8,23.9c2.7,4.8,5.6,6.5,8.8,6.5s6.1-1.7,7.7-4.5
				L56,19.9c1.6-2.8,1.6-6.1,0-8.9s-4.5-4.4-7.7-4.4H16.2C13,6.6,10.1,8.2,8.5,11z M9.9,12.9c1-1.7,2.7-2.7,4.7-2.7H50
				c1.9,0,3.7,1,4.6,2.7c1,1.7,1,3.7,0,5.4L36.9,49c-1,1.7-2.7,2.7-4.6,2.7c-1.9,0-3.7-1-4.6-2.7L9.9,18.2C8.9,16.5,9,14.5,9.9,12.9
				z"/>
		</g>
	</g>
	
		<radialGradient id="XMLID_15_" cx="33.1014" cy="36.0908" r="21.0714" gradientTransform="matrix(1 0 0 -1 -0.8514 66.1908)" gradientUnits="userSpaceOnUse">
		<stop  offset="0.2253" style="stop-color:#4E4E4E"/>
		<stop  offset="0.7527" style="stop-color:#AEAEAE"/>
		<stop  offset="0.8058" style="stop-color:#BABABA"/>
		<stop  offset="0.9011" style="stop-color:#D8D9D8"/>
		<stop  offset="1" style="stop-color:#FFFFFF"/>
	</radialGradient>
	<path id="XMLID_10_" class="st10" d="M53.2,46.2c1.4-2.5,1.4-5.4,0-7.8L39,13.9c-1.4-2.5-3.9-3.9-6.8-3.9c-2.8,0-5.4,1.5-6.8,3.9
		L11.3,38.4c-1.4,2.5-1.4,5.4,0,7.9c1.4,2.4,3.9,3.9,6.8,3.9h28.3C49.2,50.2,51.7,48.7,53.2,46.2z"/>
	<path id="XMLID_9_" class="st11" d="M31.8,19.1c-1.2,0.3-2,1.5-2,2.8c0.1,0.8,0.1,1.6,0.2,2.4c0.2,3.1,0.3,6.1,0.5,9.2
		c0.1,1,0.9,1.8,1.9,1.8c1,0,1.9-0.8,1.9-1.9c0-0.6,0-1.2,0.1-1.9c0.1-2,0.2-4,0.3-6c0.1-1.3,0.2-2.6,0.2-3.9c0-0.5-0.1-0.9-0.2-1.3
		C34.2,19.4,33,18.8,31.8,19.1z"/>
	<path id="XMLID_8_" class="st11" d="M32.4,37.1c-1.4,0-2.6,1.2-2.6,2.6s1.2,2.6,2.6,2.6c1.3,0,2.6-1.2,2.5-2.5
		C35,38.3,33.8,37.1,32.4,37.1z"/>
	<g id="XMLID_5_">
		<g id="XMLID_6_">
			<path id="XMLID_7_" class="st12" d="M46.6,33.6L25.8,23.1c-0.4-0.2-0.9,0-1.1,0.4l-4.5,8.9c-0.1,0.2-0.1,0.4,0,0.6
				s0.2,0.4,0.4,0.5l6.2,3.1l-0.6,1.1c-0.2,0.4,0,0.9,0.4,1.1l0.2,0.1l-1.1,1.9h-6.3c-0.6-1.1-1.8-1.9-3.1-1.9V46
				c1.3,0,2.5-0.7,3.1-1.8h7.3c0.6,0,1.2-0.3,1.4-0.8l1.6-2.9l0.3,0.1c0.4,0.2,0.9,0,1.1-0.4l0.6-1.1l4.7,2.3
				c0.3,0.1,0.6,0.1,0.8-0.1l1.3-0.9l2.3,1.1c0.1,0.1,0.2,0.1,0.4,0.1c0.1,0,0.2,0,0.3,0c0.2-0.1,0.4-0.2,0.5-0.4l2.3-4.7l2.4-1.6
				c0.2-0.2,0.4-0.4,0.4-0.7C47.1,34,46.9,33.7,46.6,33.6z"/>
		</g>
	</g>
</g>
<path id="XMLID_4_" class="st13" d="M39,13.9c-1.4-2.5-3.9-3.9-6.8-3.9c-2.8,0-5.4,1.5-6.8,3.9"/>
<path id="XMLID_3_" class="st13" d="M46.4,50.2c2.8,0,5.4-1.5,6.8-3.9c1.4-2.5,1.4-5.4,0-7.8"/>
<path id="XMLID_2_" class="st13" d="M11.3,38.5c-1.4,2.5-1.4,5.4,0,7.9c1.4,2.4,3.9,3.9,6.8,3.9"/>
</svg>
