<?xml version="1.0" encoding="utf-8"?>
<!-- Generator: Adobe Illustrator 16.0.0, SVG Export Plug-In . SVG Version: 6.00 Build 0)  -->
<!DOCTYPE svg PUBLIC "-//W3C//DTD SVG 1.1//EN" "http://www.w3.org/Graphics/SVG/1.1/DTD/svg11.dtd">
<svg version="1.1" id="Layer_1" xmlns="http://www.w3.org/2000/svg" xmlns:xlink="http://www.w3.org/1999/xlink" x="0px" y="0px"
	 width="219.925px" height="219.925px" viewBox="339.418 449.736 219.925 219.925"
	 enable-background="new 339.418 449.736 219.925 219.925" xml:space="preserve">
<g>
</g>
<g>
</g>
<g id="mobile_pin" display="none">
	<g id="Layer_11" display="inline">
		<g>
			
				<radialGradient id="SVGID_1_" cx="817.0537" cy="1797.8975" r="33.1324" gradientTransform="matrix(10.7962 0 0 10.7962 -8461.5469 -19004.7031)" gradientUnits="userSpaceOnUse">
				<stop  offset="0.2253" style="stop-color:#4D4D4D"/>
				<stop  offset="0.7527" style="stop-color:#ADADAD"/>
				<stop  offset="0.8058" style="stop-color:#B9B9B9"/>
				<stop  offset="0.9011" style="stop-color:#D8D8D8"/>
				<stop  offset="1" style="stop-color:#FFFFFF"/>
			</radialGradient>
			<polygon opacity="0.25" fill="url(#SVGID_1_)" enable-background="new    " points="750.363,716.176 356.301,726.972 
				-31.283,716.176 -31.283,84.597 750.363,84.597 			"/>
			<polygon opacity="0.25" fill="none" stroke="#05C8FF" stroke-width="0.25" enable-background="new    " points="750.363,716.176 
				356.301,726.972 -31.283,716.176 -31.283,84.597 750.363,84.597 			"/>
		</g>
	</g>
	<g id="Layer_1_2_" display="inline">
		<g id="Layer_1_1_">
			<g>
				<g>
					<g>
						<g>
							<polyline fill="#05C8FF" points="707.178,72.721 19.459,72.721 38.892,93.233 249.418,93.233 269.931,113.746 
								452.387,113.746 472.9,93.233 683.427,93.233 							"/>
						</g>
						<g opacity="0.75">
							<polyline fill="#D2F1FF" points="707.178,72.721 19.459,72.721 38.892,93.233 249.418,93.233 269.931,113.746 
								452.387,113.746 472.9,93.233 683.427,93.233 							"/>
						</g>
					</g>
					<g>
						<g>
							<polyline fill="#05C8FF" points="683.427,708.618 472.9,708.618 452.387,688.105 269.931,688.105 249.418,708.618 
								38.892,708.618 19.459,729.131 707.178,729.131 							"/>
						</g>
						<g opacity="0.75">
							<polyline fill="#D2F1FF" points="683.427,708.618 472.9,708.618 452.387,688.105 269.931,688.105 249.418,708.618 
								38.892,708.618 19.459,729.131 707.178,729.131 							"/>
						</g>
					</g>
					<g opacity="0.25">
						<polygon fill="none" stroke="#33C6F4" stroke-width="0.1" points="750.363,720.494 356.301,720.494 -31.283,720.494 
							-31.283,79.198 750.363,79.198 						"/>
					</g>
					<line fill="none" stroke="#33C6F4" stroke-width="0.2" x1="361.699" y1="747.484" x2="361.699" y2="1273.26"/>
					<circle fill="#05C8FF" cx="361.699" cy="735.608" r="15.114"/>
					<path fill="#05C8FF" d="M375.734,1259.226c0,8.637-6.478,15.114-15.115,15.114c-8.637,0-15.114-6.478-15.114-15.114"/>
				</g>
			</g>
		</g>
		<g id="Layer_2" display="none">
			<g display="inline">
				<rect x="499.891" y="350.184" fill="#05C8FF" stroke="#33C6F4" stroke-width="0.1" width="24.831" height="28.07"/>
				<rect x="534.438" y="350.184" fill="#05C8FF" stroke="#33C6F4" stroke-width="0.1" width="24.831" height="28.07"/>
				<path fill="#05C8FF" stroke="#33C6F4" stroke-width="0.1" d="M454.547,319.954v-24.831H323.912v24.831v2.159v118.759
					l272.064-1.08V319.954H454.547z M583.021,350.184h-14.035v28.07h14.035v9.717H337.947v-9.717h14.035v-28.07h-14.035v-9.717
					h245.074V350.184L583.021,350.184z"/>
				<rect x="396.247" y="350.184" fill="#05C8FF" stroke="#33C6F4" stroke-width="0.1" width="24.831" height="28.07"/>
				<rect x="465.343" y="350.184" fill="#05C8FF" stroke="#33C6F4" stroke-width="0.1" width="24.831" height="28.07"/>
				<rect x="430.795" y="350.184" fill="#05C8FF" stroke="#33C6F4" stroke-width="0.1" width="24.831" height="28.07"/>
				<rect x="361.699" y="350.184" fill="#05C8FF" stroke="#33C6F4" stroke-width="0.1" width="24.831" height="28.07"/>
				<path fill="#05C8FF" stroke="#33C6F4" stroke-width="0.1" d="M83.156,391.209v17.273h37.787v16.195l-37.787,7.557v8.637
					l224.562-1.079V294.043H123.103L83.156,391.209z M238.622,319.954h44.265v55.061h-44.265V319.954z M215.95,319.954v55.061
					l-92.848,11.876l24.831-66.937H215.95z"/>
				<path fill="#05C8FF" stroke="#33C6F4" stroke-width="0.1" d="M165.208,287.565h28.07c3.238,0,6.478-3.239,6.478-6.478v-14.035
					c0-3.239-3.238-6.478-6.478-6.478h-28.07c-3.239,0-6.478,3.238-6.478,6.478v14.035
					C158.73,284.326,161.969,287.565,165.208,287.565z"/>
				<path fill="#05C8FF" stroke="#33C6F4" stroke-width="0.1" d="M83.156,465.703h-5.397v37.787h5.397h35.628
					c2.159,28.07,24.831,49.662,52.901,49.662s50.742-21.592,52.901-49.662h82.051v-45.345l-224.561,1.08v6.478H83.156z
					 M172.765,474.34c15.115,0,26.991,11.876,26.991,26.99c0,15.115-11.876,26.991-26.991,26.991s-26.991-11.876-26.991-26.991
					C145.774,486.216,157.65,474.34,172.765,474.34z"/>
				<rect x="464.264" y="295.123" fill="#05C8FF" stroke="#33C6F4" stroke-width="0.1" width="130.634" height="12.956"/>
				<path fill="#05C8FF" stroke="#33C6F4" stroke-width="0.1" d="M523.643,447.35c-11.876,0-22.672,4.318-31.31,10.796
					l-167.341,1.08v46.423h145.749c2.159,28.07,24.831,49.663,52.901,49.663s50.742-21.593,52.901-49.663h19.433v-47.503h-42.104
					C545.234,451.668,534.438,447.35,523.643,447.35z M523.643,527.241c-15.115,0-26.991-11.876-26.991-26.99
					s11.876-26.991,26.991-26.991c15.114,0,26.99,11.877,26.99,26.991C549.553,515.365,537.678,527.241,523.643,527.241z"/>
			</g>
		</g>
	</g>
	<g id="Layer_2_1_" display="inline">
		<g>
			<path fill="#05C8FF" stroke="#33C6F4" stroke-width="0.1" d="M512.846,584.461c0-1.079,0-1.079,0-2.158l-7.557-2.16
				l-3.239-12.955l4.318-3.239c-1.079-2.159-1.079-3.238-1.079-3.238c-10.797-5.398-44.266-10.796-44.266-10.796
				c-18.354-17.274-39.945-34.549-53.98-34.549c-6.478,0-51.822,0-65.857,0c-14.035,0-59.379,31.31-59.379,31.31
				c-34.548,5.397-76.653,11.876-76.653,28.069l0,0h28.07l-6.478,8.637h-21.593v1.08c-1.08,1.08-1.08,3.239-1.08,5.398v7.558
				c0,4.318,3.239,8.637,7.557,9.716c2.16,1.08,4.319,0,4.319,0h23.751c2.16,15.115,14.035,26.991,30.229,26.991
				c15.115,0,28.07-11.876,30.229-26.991h113.36c2.159,15.115,14.035,26.991,30.229,26.991c15.114,0,28.07-11.876,30.229-26.991
				h22.672h9.717c5.397,0,10.796-4.318,10.796-10.795v-7.559C515.006,588.779,513.926,586.621,512.846,584.461z M269.931,621.168
				c-8.637,0-15.115-6.477-15.115-15.113c0-8.638,6.478-15.115,15.115-15.115c8.637,0,15.115,6.478,15.115,15.115
				C285.046,614.691,278.568,621.168,269.931,621.168z M328.23,576.904c0,5.398-4.318,6.478-8.637,6.478h-3.239v7.558h-5.398
				v-20.513h7.558C322.833,570.426,328.23,571.506,328.23,576.904L328.23,576.904L328.23,576.904z M347.664,581.223
				c0,7.557-3.239,9.717-8.637,9.717c-6.478,0-8.637-3.239-8.637-9.717v-1.08c0-7.557,3.238-9.717,8.637-9.717
				C344.425,570.426,347.664,572.586,347.664,581.223L347.664,581.223z M363.858,590.939h-14.035v-20.514h5.398v16.195h8.637
				V590.939L363.858,590.939z M371.416,590.939h-5.398v-20.514h5.398L371.416,590.939L371.416,590.939z M391.929,577.984h-5.398
				c0-3.239-1.08-4.318-3.239-4.318l0,0c-3.239,0-4.319,2.158-4.319,6.477v1.08c0,4.318,1.08,6.479,4.319,6.479l0,0
				c2.159,0,3.239-1.08,3.239-3.239h5.398l0,0c0,5.397-3.239,7.558-8.637,7.558c-6.478,0-8.637-3.238-8.637-9.717v-1.08
				c0-7.557,3.239-9.716,8.637-9.716C389.77,570.426,391.929,572.586,391.929,577.984L391.929,577.984z M410.282,573.666h-9.717
				v4.318h8.637v3.238h-8.637v5.398h9.717v3.238h-15.115v-20.513h15.115V573.666z M303.399,549.914
				c21.593-14.035,37.787-22.673,44.265-22.673h51.822c6.478,0,17.273,4.318,38.866,22.673H303.399z M441.591,621.168
				c-8.637,0-15.114-6.477-15.114-15.113c0-8.638,6.478-15.115,15.114-15.115c8.638,0,15.115,6.478,15.115,15.115
				C457.785,614.691,450.229,621.168,441.591,621.168z"/>
			<path fill="#05C8FF" stroke="#33C6F4" stroke-width="0.1" d="M339.027,573.666L339.027,573.666c-3.239,0-4.318,2.158-4.318,6.477
				v1.08c0,4.318,1.08,6.479,4.318,6.479l0,0c3.239,0,4.318-2.16,4.318-6.479v-1.08
				C342.266,575.824,341.187,573.666,339.027,573.666z"/>
			<path fill="#05C8FF" stroke="#33C6F4" stroke-width="0.1" d="M319.594,573.666h-3.239v5.397h3.239c1.08,0,3.239,0,3.239-3.239
				l0,0C322.833,574.744,320.673,573.666,319.594,573.666z"/>
		</g>
	</g>
	<g id="Layer_3_1_" display="inline">
		<g id="Layer_2_2_">
			<g>
				<rect x="464.264" y="544.516" fill="#05C8FF" stroke="#33C6F4" stroke-width="0.1" width="17.273" height="18.354"/>
				<rect x="486.936" y="544.516" fill="#05C8FF" stroke="#33C6F4" stroke-width="0.1" width="17.273" height="18.354"/>
				<path fill="#05C8FF" stroke="#33C6F4" stroke-width="0.1" d="M432.954,524.003v-16.194h-86.37v16.194v1.079v79.893l181.377-1.08
					v-79.892H432.954z M519.324,544.516h-9.717v18.354h9.717v6.478H356.301v-6.478h9.717v-18.354h-9.717v-6.479h163.023V544.516
					L519.324,544.516z"/>
				<rect x="395.167" y="544.516" fill="#05C8FF" stroke="#33C6F4" stroke-width="0.1" width="17.274" height="18.354"/>
				<rect x="440.512" y="544.516" fill="#05C8FF" stroke="#33C6F4" stroke-width="0.1" width="17.273" height="18.354"/>
				<rect x="417.84" y="544.516" fill="#05C8FF" stroke="#33C6F4" stroke-width="0.1" width="17.273" height="18.354"/>
				<rect x="371.416" y="544.516" fill="#05C8FF" stroke="#33C6F4" stroke-width="0.1" width="17.273" height="18.354"/>
				<path fill="#05C8FF" stroke="#33C6F4" stroke-width="0.1" d="M186.8,571.506v11.876h24.832v10.796l-24.832,5.398v6.479
					l150.067-1.08v-97.166H213.791L186.8,571.506z M289.364,524.003h29.15v36.707h-29.15V524.003z M274.25,524.003v36.707
					l-61.539,7.558l16.194-44.265H274.25z"/>
				<path fill="#05C8FF" stroke="#33C6F4" stroke-width="0.1" d="M240.781,502.41h19.434c2.159,0,4.318-2.159,4.318-4.318v-9.717
					c0-2.159-2.16-4.318-4.318-4.318h-19.434c-2.159,0-4.318,2.16-4.318,4.318v9.717C236.463,500.251,238.622,502.41,240.781,502.41
					z"/>
				<path fill="#05C8FF" stroke="#33C6F4" stroke-width="0.1" d="M186.8,621.168h-4.318v25.912h4.318h23.752
					c1.08,18.354,16.194,33.468,35.627,33.468c18.354,0,34.548-14.034,35.627-33.468h55.061v-30.23L186.8,617.93V621.168z
					 M246.18,626.566c9.716,0,17.274,7.559,17.274,17.274s-7.558,17.274-17.274,17.274c-9.717,0-17.274-7.559-17.274-17.274
					C227.826,635.203,235.383,626.566,246.18,626.566z"/>
				<rect x="440.512" y="507.809" fill="#05C8FF" stroke="#33C6F4" stroke-width="0.1" width="86.369" height="8.637"/>
				<path fill="#05C8FF" stroke="#33C6F4" stroke-width="0.1" d="M479.378,609.293c-7.558,0-15.114,2.159-20.513,6.478H346.584V646
					h97.166c1.08,18.354,16.194,33.469,35.628,33.469c18.354,0,34.548-14.035,35.628-33.469h12.955v-31.309h-28.07
					C494.492,611.452,486.936,609.293,479.378,609.293z M479.378,662.194c-9.717,0-17.274-7.558-17.274-17.274
					s7.558-17.273,17.274-17.273s17.274,7.557,17.274,17.273C496.651,654.637,489.095,662.194,479.378,662.194z"/>
			</g>
		</g>
	</g>
</g>
<g id="static_pin">
	
		<radialGradient id="SVGID_4_" cx="-270.6245" cy="430.8906" r="9.9993" gradientTransform="matrix(10.7962 0 0 -10.7962 3371.1096 5211.2197)" gradientUnits="userSpaceOnUse">
		<stop  offset="0" style="stop-color:#000000;stop-opacity:0"/>
		<stop  offset="1" style="stop-color:#A38F33"/>
	</radialGradient>
	<circle fill="url(#SVGID_4_)" stroke="#FFC805" stroke-width="4" stroke-miterlimit="10" cx="449.381" cy="559.699" r="107.962"/>
	<g>
		<g>
			<path fill="#FFFFFF" stroke="#FFC805" stroke-width="4" stroke-miterlimit="10" d="M527.113,552.142L423.47,500.32
				c-2.159-1.08-4.318,0-5.398,2.159l-21.592,44.265c0,1.08-1.08,2.159,0,3.238c1.08,1.08,1.08,2.16,2.16,2.16l31.309,15.114
				l-3.238,5.397c-1.08,2.16,0,4.318,2.159,5.398h1.08l-5.398,9.717h-31.309c-3.239-5.398-8.637-9.717-15.115-9.717v35.627
				c6.478,0,12.956-3.238,15.115-8.637h36.707c3.239,0,5.398-1.079,7.558-4.318l7.557-14.035l1.08,1.08
				c2.159,1.08,4.318,0,5.398-2.159l3.239-5.397l22.672,11.875c1.08,1.08,3.239,1.08,4.318,0l6.479-4.318l11.875,5.398
				c1.08,0,1.08,0,2.16,0h1.079c1.08,0,2.159-1.08,2.159-2.16l11.876-23.751l11.876-7.558c1.08-1.08,2.159-2.16,2.159-3.238
				C529.272,553.221,528.193,552.142,527.113,552.142z"/>
		</g>
	</g>
</g>
<path fill="none" stroke="#FFC805" stroke-miterlimit="10" d="M359.54,937.498"/>
<path fill="none" stroke="#FFC805" stroke-miterlimit="10" d="M-266.641,1050.858"/>
<path fill="#FFDC6E" stroke="#FFC805" stroke-miterlimit="10" d="M-322.781,149.374"/>
</svg>
